# xmcd
#
# Track frame offsets:
#	150
#	21459
#	42642
#	62327
#	81361
#	99361
#	117304
#	139296
#	158255
#	180462
#	202642
#	224324
#	243405
#	265382
#
# Disc length: 3831 seconds
#
# Revision: 1
# Processed by: cddbd v1.5.2PL0 Copyright (c) Steve Scherf et al.
# Submitted via: EZCDAudioConverter 8.0.2.1
#
DISCID=bc0ef50e
DTITLE=Phan Đình Tùng, Thái Ngọc Bích - Níu Kéo Hay Buông Tay
DYEAR=2011
DGENRE=World Pop
TTITLE0=Phan Đình Tùng, Thái Ngọc Bích - Yêu thương mong manh
TTITLE1=Thái Ngọc Bích - Đếm từng ngày xa anh
TTITLE2=Phan Đình Tùng - Không thể quên em
TTITLE3=Phan Đình Tùng, Thái Ngọc Bích - Níu Kéo Hay Buông Tay
TTITLE4=Thái Ngọc Bích - Tiếc nuối làm gì
TTITLE5=Phan Đình Tùng - Được chính là tôi
TTITLE6=Phan Đình Tùng, Thái Ngọc Bích - Lỡ lầm
TTITLE7=Phan Đình Tùng - Khép trái tim
TTITLE8=Thái Ngọc Bích - Vì ta yêu nhau
TTITLE9=Phan Đình Tùng, Thái Ngọc Bích - Trái tim không ngủ yên
TTITLE10=Soundtrack - Yêu thương mong manh
TTITLE11=Soundtrack - Níu Kéo Hay Buông Tay
TTITLE12=Soundtrack - Lỡ lầm
TTITLE13=Soundtrack - Trái tim không ngủ yên
EXTD=
EXTT0=
EXTT1=
EXTT2=
EXTT3=
EXTT4=
EXTT5=
EXTT6=
EXTT7=
EXTT8=
EXTT9=
EXTT10=
EXTT11=
EXTT12=
EXTT13=
PLAYORDER=
